<?xml version="1.0" encoding="utf-8"?>
<!-- Generator: Adobe Illustrator 24.2.3, SVG Export Plug-In . SVG Version: 6.00 Build 0)  -->
<svg version="1.1" id="レイヤー_1" xmlns="http://www.w3.org/2000/svg" xmlns:xlink="http://www.w3.org/1999/xlink" x="0px"
	 y="0px" viewBox="0 0 595.28 841.89" style="enable-background:new 0 0 595.28 841.89;" xml:space="preserve">
<style type="text/css">
	.st0{fill:#008FD9;}
	.st1{fill:#FFFFFF;}
	.st2{fill:none;stroke:#008FD9;stroke-width:8;stroke-miterlimit:10;}
	.st3{fill:none;}
</style>
<path class="st0" d="M246.52,458.55l17.71-15.45l21.94,4.48l27.33-9.09l26,7.5l17-8l10.8,12.61c0,0-25.8,26.89-37.8,30.39
	s-45,5-52,0.5S246.52,458.55,246.52,458.55z"/>
<path class="st1" d="M352,425.36c-8.16,0-12.29,3.94-15.29,6.82c-2.78,2.66-4.08,3.67-6.64,3.67c-2.57,0-3.86-1-6.64-3.67
	c-3.01-2.88-7.14-6.82-15.3-6.82c-8.16,0-12.29,3.94-15.3,6.82c-2.78,2.66-4.08,3.67-6.64,3.67c-2.57,0-3.86-1-6.64-3.67
	c-3.01-2.88-7.14-6.82-15.3-6.82c-8.16,0-12.29,3.94-15.3,6.82c-2.42,2.31-3.71,3.38-5.7,3.61c0.89,2.72,1.99,15.73,3.28,18.27
	c5.46-1.07,8.63-4.1,11.07-6.43c2.78-2.66,4.08-3.67,6.64-3.67c2.57,0,3.86,1.01,6.64,3.67c3.01,2.88,7.14,6.82,15.3,6.82
	c8.16,0,12.29-3.95,15.3-6.82c2.78-2.66,4.08-3.67,6.64-3.67c2.57,0,3.86,1.01,6.64,3.67c3.01,2.88,7.14,6.82,15.3,6.82
	c8.16,0,12.29-3.95,15.29-6.82c2.78-2.66,4.08-3.67,6.64-3.67c2.57,0,3.86,1.01,6.64,3.67c1.58,1.51,3.47,3.31,6.08,4.68
	c1.36-2.92,2.45-16.33,3.28-19.47c-0.23-0.21-0.46-0.43-0.71-0.67C364.29,429.3,360.16,425.36,352,425.36z"/>
<ellipse transform="matrix(0.7071 -0.7071 0.7071 0.7071 -205.4435 337.9208)" class="st2" cx="305.18" cy="416.95" rx="103.34" ry="103.34"/>
<path class="st0" d="M313.1,331.18c0,3.31-2.69,6-6,6s-6-2.69-6-6c0-3.31,2.69-6,6-6S313.1,327.87,313.1,331.18z"/>
<circle class="st0" cx="369.37" cy="357.44" r="6"/>
<path class="st0" d="M398.62,418.2c0,3.31-2.69,6-6,6s-6-2.69-6-6c0-3.31,2.69-6,6-6S398.62,414.89,398.62,418.2z"/>
<path class="st0" d="M372.37,478.59c0,3.31-2.69,6-6,6s-6-2.69-6-6c0-3.31,2.69-6,6-6S372.37,475.28,372.37,478.59z"/>
<path class="st0" d="M311.22,503.72c0,3.31-2.69,6-6,6s-6-2.69-6-6c0-3.31,2.69-6,6-6S311.22,500.41,311.22,503.72z"/>
<path class="st0" d="M250.46,478.97c0,3.31-2.69,6-6,6s-6-2.69-6-6c0-3.31,2.69-6,6-6S250.46,475.66,250.46,478.97z"/>
<path class="st0" d="M224.95,417.45c0,3.31-2.69,6-6,6s-6-2.69-6-6c0-3.31,2.69-6,6-6S224.95,414.14,224.95,417.45z"/>
<path class="st0" d="M250.08,354.44c0,3.31-2.69,6-6,6s-6-2.69-6-6c0-3.31,2.69-6,6-6S250.08,351.12,250.08,354.44z"/>
<g>
	<path class="st3" d="M305.18,352.33c-35.64,0-64.63,28.99-64.63,64.63c0,6.38,0.94,12.54,2.67,18.37c1.98-0.26,3.28-1.43,5.7-3.97
		c3.01-3.17,7.14-7.5,15.3-7.5c8.16,0,12.29,4.34,15.3,7.5c2.78,2.92,4.08,4.03,6.64,4.03c2.57,0,3.86-1.11,6.64-4.03
		c3.01-3.17,7.14-7.5,15.3-7.5c8.16,0,12.29,4.34,15.3,7.5c2.78,2.92,4.08,4.03,6.64,4.03c2.57,0,3.86-1.11,6.64-4.03
		c3.01-3.17,7.13-7.5,15.29-7.5s12.29,4.34,15.3,7.5c0.25,0.26,0.48,0.5,0.71,0.73c1.17-4.86,1.81-9.92,1.81-15.13
		C369.81,381.32,340.82,352.33,305.18,352.33z"/>
	<path class="st0" d="M235.65,431.35c2.78,2.92,4.08,4.03,6.64,4.03c0.33,0,0.65-0.02,0.94-0.06c-1.73-5.83-2.67-11.99-2.67-18.37
		c0-35.64,28.99-64.63,64.63-64.63c35.64,0,64.63,28.99,64.63,64.63c0,5.21-0.64,10.27-1.81,15.13c2.31,2.37,3.6,3.3,5.94,3.3
		c0.57,0,1.07-0.06,1.54-0.18c1.51-5.83,2.32-11.95,2.32-18.25c0-40.05-32.58-72.63-72.63-72.63c-40.05,0-72.63,32.58-72.63,72.63
		c0,4.21,0.38,8.34,1.07,12.35C234.37,430.01,235.03,430.7,235.65,431.35z"/>
	<path class="st0" d="M352,427c-8.16,0-12.29,4.34-15.29,7.5c-2.78,2.92-4.08,4.03-6.64,4.03c-2.57,0-3.86-1.11-6.64-4.03
		c-3.01-3.17-7.14-7.5-15.3-7.5c-8.16,0-12.29,4.34-15.3,7.5c-2.78,2.92-4.08,4.03-6.64,4.03c-2.57,0-3.86-1.11-6.64-4.03
		c-3.01-3.17-7.14-7.5-15.3-7.5c-8.16,0-12.29,4.34-15.3,7.5c-2.42,2.54-3.71,3.71-5.7,3.97c0.89,2.99,1.99,5.89,3.28,8.69
		c5.46-1.17,8.63-4.5,11.07-7.07c2.78-2.92,4.08-4.03,6.64-4.03c2.57,0,3.86,1.1,6.64,4.03c3.01,3.17,7.14,7.5,15.3,7.5
		c8.16,0,12.29-4.33,15.3-7.5c2.78-2.92,4.08-4.03,6.64-4.03c2.57,0,3.86,1.1,6.64,4.03c3.01,3.17,7.14,7.5,15.3,7.5
		c8.16,0,12.29-4.33,15.29-7.5c2.78-2.92,4.08-4.03,6.64-4.03c2.57,0,3.86,1.11,6.64,4.03c1.58,1.66,3.47,3.64,6.08,5.15
		c1.36-3.21,2.45-6.55,3.28-10c-0.23-0.23-0.46-0.47-0.71-0.73C364.29,431.34,360.16,427,352,427z"/>
	<path class="st0" d="M373.94,435.38c-2.34,0-3.63-0.93-5.94-3.3c-0.83,3.45-1.92,6.79-3.28,10c2.05,1.18,4.54,2.08,7.69,2.3
		c1.22-2.97,2.25-6.03,3.07-9.19C375.01,435.32,374.51,435.38,373.94,435.38z"/>
	<path class="st0" d="M246.52,444.01c-1.29-2.79-2.39-5.7-3.28-8.69c-0.3,0.04-0.61,0.06-0.94,0.06c-2.56,0-3.86-1.11-6.64-4.03
		c-0.62-0.65-1.28-1.35-2.02-2.04c0.87,5.08,2.27,9.97,4.15,14.63c1.35,0.32,2.85,0.5,4.51,0.5
		C243.84,444.44,245.24,444.28,246.52,444.01z"/>
</g>
<g>
	<path class="st3" d="M264.23,443.11c8.16,0,12.29,4.33,15.3,7.5c2.78,2.92,4.08,4.03,6.64,4.03c2.57,0,3.86-1.1,6.64-4.03
		c3.01-3.17,7.14-7.5,15.3-7.5c8.16,0,12.29,4.33,15.3,7.5c2.78,2.92,4.08,4.03,6.64,4.03c2.57,0,3.86-1.1,6.64-4.03
		c3.01-3.17,7.13-7.5,15.29-7.5c4.74,0,8.11,1.46,10.7,3.31c0.73-1.41,1.4-2.86,2.03-4.33c-2.61-1.51-4.51-3.49-6.08-5.15
		c-2.78-2.92-4.08-4.03-6.64-4.03c-2.57,0-3.86,1.11-6.64,4.03c-3.01,3.17-7.13,7.5-15.29,7.5c-8.16,0-12.29-4.34-15.3-7.5
		c-2.78-2.92-4.08-4.03-6.64-4.03c-2.57,0-3.86,1.11-6.64,4.03c-3.01,3.17-7.14,7.5-15.3,7.5c-8.16,0-12.29-4.34-15.3-7.5
		c-2.78-2.92-4.08-4.03-6.64-4.03c-2.57,0-3.86,1.11-6.64,4.03c-2.44,2.57-5.61,5.9-11.07,7.07c0.93,2.02,1.97,3.98,3.1,5.88
		C252.58,446.82,256.67,443.11,264.23,443.11z"/>
	<path class="st3" d="M345.35,456.19c-3.01,3.17-7.13,7.5-15.29,7.5c-8.16,0-12.29-4.33-15.3-7.5c-2.78-2.93-4.08-4.03-6.64-4.03
		c-2.57,0-3.86,1.1-6.64,4.03c-3.01,3.17-7.14,7.5-15.3,7.5c-8.16,0-12.29-4.33-15.3-7.5c-2.78-2.93-4.08-4.03-6.64-4.03
		c-2.57,0-3.86,1.1-6.64,4.03c-0.62,0.66-1.3,1.36-2.04,2.07c11.86,14.24,29.7,23.32,49.64,23.32c21.44,0,40.48-10.5,52.24-26.63
		c-2-1.99-3.27-2.78-5.43-2.78C349.43,452.16,348.14,453.27,345.35,456.19z"/>
	<path class="st0" d="M248.93,450.61c0.22-0.23,0.45-0.47,0.69-0.72c-1.13-1.9-2.17-3.86-3.1-5.88c-1.28,0.27-2.68,0.43-4.23,0.43
		c-1.67,0-3.16-0.19-4.51-0.5c1.49,3.71,3.29,7.27,5.35,10.65C245.17,454.35,246.47,453.19,248.93,450.61z"/>
	<path class="st0" d="M367.3,450.61c0.53,0.55,0.99,1.02,1.43,1.45c1.37-2.47,2.61-5.03,3.69-7.67c-3.15-0.22-5.64-1.12-7.69-2.3
		c-0.62,1.47-1.3,2.91-2.03,4.33C364.57,447.75,366.04,449.28,367.3,450.61z"/>
	<g>
		<path class="st0" d="M358.64,456.19c-0.44-0.46-0.84-0.87-1.22-1.25c-11.76,16.13-30.79,26.63-52.24,26.63
			c-19.94,0-37.78-9.08-49.64-23.32c-1.74,1.65-3.89,3.31-6.77,4.36c13.32,16.44,33.65,26.96,56.41,26.96
			c23.75,0,44.86-11.47,58.12-29.15C361.4,459.09,359.92,457.54,358.64,456.19z"/>
	</g>
	<path class="st0" d="M367.3,450.61c-1.26-1.33-2.73-2.86-4.6-4.19c-1.54,2.99-3.31,5.84-5.27,8.54c0.38,0.38,0.77,0.78,1.22,1.25
		c1.28,1.34,2.76,2.89,4.66,4.24c1.99-2.66,3.8-5.46,5.42-8.38C368.29,451.63,367.83,451.16,367.3,450.61z"/>
	<path class="st0" d="M249.62,449.89c-0.24,0.24-0.47,0.49-0.69,0.72c-2.46,2.59-3.76,3.75-5.8,3.98c1.71,2.8,3.59,5.49,5.65,8.03
		c2.88-1.04,5.03-2.7,6.77-4.36C253.36,455.63,251.37,452.84,249.62,449.89z"/>
</g>
<g>
	<path class="st0" d="M265.89,385.9l-1.63-6.29h7.52l1.59,6.17l11.11-0.12v6.13l-9.55,0.12l2.63,10.23h-7.6l-2.35-10.07l-15.29,0.2
		v-6.21L265.89,385.9z M262.58,398.72c-1.83,3.38-2.11,4.1-2.11,5.73c0,2.79,2.59,3.7,10.59,3.7c3.07,0,5.53-0.16,11.74-0.72v6.65
		c-5.77,0.44-9.32,0.6-13.46,0.6c-5.89,0-9.2-0.56-11.7-1.99c-2.67-1.51-4.3-4.18-4.3-7.09c0-1.95,0.28-2.95,1.87-6.89H262.58z"/>
</g>
<g>
	<path class="st0" d="M295.39,397.47c0.32-2.35,0.4-3.18,0.72-7.72h6.57c-0.24,3.03-0.36,4.02-0.8,7.72h2.91
		c3.42,0,4.86,0.56,5.97,2.31c1.07,1.75,1.39,4.38,1.39,11.78c0,4.58-0.24,6.13-1.15,8.08c-0.96,2.03-3.14,3.58-5.45,3.94
		c-1.35,0.24-1.59,0.24-5.77,0.24v-6.57c0.56,0.04,1,0.04,1.23,0.04c3.18,0,4.14-1.35,4.14-5.73c0-3.38-0.16-5.81-0.44-6.29
		c-0.32-0.56-0.88-0.84-1.83-0.92c-0.32-0.04-0.32-0.04-2.07-0.04c-1.71,7.76-3.3,13.81-5.17,19.51h-7.29
		c3.14-7.88,4.38-11.94,5.97-19.51h-5.97v-6.85H295.39z M314.5,388.27v6.25h-3.78v-6.25H314.5z M319.24,395.76
		c2.55,4.54,3.1,7.6,3.1,17.32l-0.04,2.79h-6.89c0.12-2.27,0.16-3.42,0.16-5.37c0-7.33-0.2-8.24-3.14-14.73H319.24z M319.51,388.27
		v6.25h-3.86v-6.25H319.51z"/>
</g>
<g>
	<path class="st0" d="M325.45,385.38l17.48-0.12v-4.14h7.09v4.02l9.28-0.12v6.21l-9.28,0.08v15.09c0.04,3.19-0.6,5.18-2.39,7.25
		c-2.39,2.47-4.54,3.15-9.67,3.11h-7.01v-6.41h6.41c4.66,0,5.57-0.64,5.89-4.06c-2.11,1-3.26,1.27-5.1,1.27
		c-4.42,0-7.72-3.03-7.72-7.09c0-2.07,0.88-3.9,2.67-5.45c1.71-1.47,3.46-2.07,6.21-2.07c1.19,0,1.99,0.12,3.62,0.48v-2.11
		l-17.48,0.2V385.38z M337,400.27c0,1.07,1.12,1.83,2.75,1.83c1.79,0,2.99-0.84,2.99-2.07c0-1.03-1.16-1.75-2.79-1.75
		C338.39,398.28,337,399.24,337,400.27z"/>
</g>
<g>
	<path class="st1" d="M294.25,457.6l-8.32,10c-0.5,0.59-0.81,1.31-0.81,1.9c0,0.59,0.14,0.81,1.06,1.93l8.57,10.39h-6.66l-6.78-8.57
		l-1.18-1.4c-0.56-0.67-0.76-1.29-0.76-2.3c0-0.87,0.28-1.71,0.73-2.24l8.15-9.71H294.25z"/>
</g>
<g>
	<path class="st1" d="M321.27,457.38c-1.37,3.64-1.62,4.37-3.28,9.88c1.99-1.77,3.36-2.49,4.73-2.49c2.16,0,3.42,1.54,3.42,4.14
		c0,0.39-0.06,1.4-0.14,2.24c-0.14,1.71-0.22,3-0.22,3.87c0,1.46,0.31,1.9,1.29,1.9c1.23,0,2.07-0.81,2.41-2.35
		c0.36-1.76,0.5-3.5,0.62-7.53h4.96c-0.08,1.2-0.14,2.24-0.17,2.63c-0.28,5.43-0.59,6.97-1.82,9.04c-1.23,2.07-3.61,3.22-6.75,3.22
		c-3.67,0-5.57-1.54-5.57-4.48c0-0.84,0.14-3,0.31-4.31c0.06-0.48,0.08-0.98,0.08-1.26c0-0.81-0.48-1.46-1.06-1.46
		c-0.78,0-2.18,0.87-2.94,1.85c-1.06,1.34-1.68,3.3-2.94,9.49h-4.96c1.32-5.94,2.02-8.51,3.98-14.84c1.34-4.37,1.51-4.9,2.86-9.55
		H321.27z"/>
</g>
<rect x="182.38" y="374.88" class="st0" width="24.76" height="21.76"/>
<path class="st0" d="M193.95,385.8c0,6.04-4.62,10.93-10.31,10.93c-5.7,0-10.32-4.9-10.32-10.93c0-6.04,4.62-10.94,10.32-10.94
	C189.34,374.86,193.95,379.76,193.95,385.8z"/>
<circle class="st1" cx="187.37" cy="385.54" r="6"/>
<rect x="182.38" y="432.63" class="st0" width="24.76" height="21.75"/>
<path class="st0" d="M193.95,443.55c0,6.04-4.62,10.93-10.31,10.93c-5.7,0-10.32-4.9-10.32-10.93c0-6.04,4.62-10.94,10.32-10.94
	C189.34,432.61,193.95,437.51,193.95,443.55z"/>
<path class="st1" d="M193.36,443.29c0,3.31-2.69,6-6,6s-6-2.69-6-6s2.69-6,6-6S193.36,439.98,193.36,443.29z"/>
<rect x="185.75" y="394.75" class="st0" width="5.5" height="41.25"/>
<path class="st0" d="M352,427c-8.16,0-12.29,4.34-15.29,7.5c-2.78,2.92-4.08,4.03-6.64,4.03c-2.57,0-3.86-1.11-6.64-4.03
	c-3.01-3.17-7.14-7.5-15.3-7.5c-8.16,0-12.29,4.34-15.3,7.5c-2.78,2.92-4.08,4.03-6.64,4.03c-2.57,0-3.86-1.11-6.64-4.03
	c-3.01-3.17-7.14-7.5-15.3-7.5c-8.16,0-12.29,4.34-15.3,7.5c-2.42,2.54-3.71,3.71-5.7,3.97c0.89,2.99,1.99,5.89,3.28,8.69
	c5.46-1.17,8.63-4.5,11.07-7.07c2.78-2.92,4.08-4.03,6.64-4.03c2.57,0,3.86,1.1,6.64,4.03c3.01,3.17,7.14,7.5,15.3,7.5
	c8.16,0,12.29-4.33,15.3-7.5c2.78-2.92,4.08-4.03,6.64-4.03c2.57,0,3.86,1.1,6.64,4.03c3.01,3.17,7.14,7.5,15.3,7.5
	c8.16,0,12.29-4.33,15.29-7.5c2.78-2.92,4.08-4.03,6.64-4.03c2.57,0,3.86,1.11,6.64,4.03c1.58,1.66,3.47,3.64,6.08,5.15
	c1.36-3.21,2.45-6.55,3.28-10c-0.23-0.23-0.46-0.47-0.71-0.73C364.29,431.34,360.16,427,352,427z"/>
</svg>
