<?xml version="1.0" encoding="utf-8"?>
<!DOCTYPE svg PUBLIC "-//W3C//DTD SVG 20010904//EN" "http://www.w3.org/TR/2001/REC-SVG-20010904/DTD/svg10.dtd">
<svg version="1.0" xmlns="http://www.w3.org/2000/svg" width="258pt" height="258pt" viewBox="0 0 258 258" style="" preserveAspectRatio="xMidYMid meet">
<g fill="#008DC7FF" stroke="#008DC7FF">
<path d="M 124.500 16.403 C 111.985 18.509 104.416 20.790 94.369 25.485 C 71.723 36.068 52.874 53.852 41.355 75.507 C 36.264 85.076 37.851 84.363 22.402 84.021 C 11.506 83.779 6.441 85.229 3.958 89.301 C 1.615 93.144 1.467 97.069 3.517 101.033 C 5.146 104.183 9.610 107.000 12.972 107.000 C 15.004 107.000 15.038 107.360 14.772 126.161 L 14.500 145.321 10.522 146.436 C 3.503 148.404 0.060 156.348 3.415 162.835 C 5.648 167.154 8.457 167.973 21.984 168.247 L 34.469 168.500 39.749 178.930 C 54.383 207.839 80.696 230.215 109.150 237.949 C 119.141 240.664 134.173 242.991 141.757 242.996 C 148.976 243.001 164.834 240.748 173.369 238.505 C 197.198 232.244 221.756 214.406 236.254 192.828 C 249.681 172.844 256.021 152.370 255.983 129.119 C 255.931 97.675 244.717 70.619 222.549 48.451 C 207.352 33.253 188.513 22.740 168.000 18.008 C 155.996 15.240 135.838 14.496 124.500 16.403 M 154.500 23.109 C 183.397 26.650 209.448 41.658 227.090 64.928 C 233.479 73.355 241.229 89.016 244.694 100.500 C 247.240 108.935 247.409 110.692 247.400 128.500 C 247.392 144.819 247.089 148.583 245.255 155.175 C 238.052 181.066 221.915 203.626 200.714 217.446 C 190.076 224.380 181.172 228.415 169.000 231.817 C 160.375 234.228 157.888 234.473 142.000 234.473 C 126.134 234.473 123.613 234.226 115.000 231.826 C 84.366 223.291 60.101 203.407 46.552 175.739 C 33.162 148.394 31.971 116.626 43.301 89.000 C 55.811 58.495 81.441 35.387 112.577 26.538 C 127.574 22.275 139.645 21.288 154.500 23.109 M 29.225 110.250 C 28.826 112.038 28.500 120.813 28.500 129.750 L 28.500 146.001 24.250 146.000 L 20.000 146.000 20.000 126.500 L 20.000 107.000 24.975 107.000 L 29.950 107.000 29.225 110.250 M 20.686 152.174 C 23.678 154.986 23.626 158.465 20.545 161.545 C 17.650 164.441 15.005 164.663 12.153 162.250 C 8.713 159.339 8.400 155.509 11.359 152.550 C 14.482 149.427 17.626 149.300 20.686 152.174 M 21.250 91.198 C 25.066 95.611 21.557 102.388 15.757 101.807 C 9.120 101.142 7.115 92.625 12.866 89.520 C 15.983 87.837 18.838 88.408 21.250 91.198 "/></g>
<g fill="#FFFFFFFF" stroke="#FFFFFFFF">
<path d="M 128.500 23.127 C 72.106 30.172 30.685 81.919 36.057 138.616 C 40.288 183.279 71.029 219.575 115.000 231.826 C 123.613 234.226 126.134 234.473 142.000 234.473 C 157.888 234.473 160.375 234.228 169.000 231.817 C 206.801 221.251 234.663 193.247 245.255 155.175 C 247.089 148.583 247.392 144.819 247.400 128.500 C 247.409 110.692 247.240 108.935 244.694 100.500 C 231.855 57.948 197.376 28.363 154.500 23.109 C 144.330 21.862 138.595 21.866 128.500 23.127 M 166.261 55.725 C 196.766 66.324 216.892 92.725 218.704 124.518 C 220.917 163.345 194.132 197.258 155.500 204.543 C 110.495 213.029 67.596 178.993 65.269 132.954 C 63.599 99.898 81.997 70.471 112.293 57.742 C 123.332 53.103 129.955 51.996 144.500 52.358 C 155.906 52.642 158.574 53.055 166.261 55.725 M 80.476 57.358 C 84.619 60.388 81.874 68.000 76.638 68.000 C 73.799 68.000 71.000 65.107 71.000 62.174 C 71.000 57.040 76.334 54.330 80.476 57.358 M 148.000 33.000 C 150.403 35.403 150.538 37.786 148.443 40.777 C 145.342 45.206 138.000 42.394 138.000 36.777 C 138.000 34.391 141.521 31.000 144.000 31.000 C 145.100 31.000 146.900 31.900 148.000 33.000 M 81.000 191.000 C 84.811 194.811 82.197 201.000 76.777 201.000 C 74.391 201.000 71.000 197.479 71.000 195.000 C 71.000 193.900 71.900 192.100 73.000 191.000 C 74.100 189.900 75.900 189.000 77.000 189.000 C 78.100 189.000 79.900 189.900 81.000 191.000 M 238.777 125.557 C 242.926 128.462 240.587 136.000 235.536 136.000 C 230.361 136.000 227.840 130.744 231.055 126.657 C 233.439 123.627 235.586 123.321 238.777 125.557 M 53.365 125.073 C 56.374 127.439 56.675 129.591 54.443 132.777 C 52.582 135.434 48.439 135.707 45.829 133.345 C 42.066 129.940 44.638 123.782 50.115 123.079 C 50.453 123.036 51.916 123.933 53.365 125.073 M 211.429 190.571 C 214.889 194.032 212.354 200.250 207.482 200.250 C 204.656 200.250 201.000 197.070 201.000 194.612 C 201.000 189.953 208.071 187.214 211.429 190.571 M 213.777 60.557 C 217.936 63.469 215.834 71.000 210.863 71.000 C 207.017 71.000 205.000 69.115 205.000 65.522 C 205.000 62.226 207.721 59.000 210.500 59.000 C 211.080 59.000 212.555 59.701 213.777 60.557 M 146.171 217.655 C 148.445 219.713 148.516 222.772 146.345 225.171 C 143.103 228.753 136.000 226.352 136.000 221.674 C 136.000 216.781 142.408 214.249 146.171 217.655 "/></g>
<g fill="#008DC7FF" stroke="#008DC7FF">
<path d="M 125.364 53.431 C 101.356 58.896 80.309 76.479 70.902 98.929 C 54.917 137.078 72.608 181.892 110.421 199.037 C 162.629 222.709 221.973 181.870 218.704 124.518 C 216.892 92.725 196.766 66.324 166.261 55.725 C 158.574 53.055 155.906 52.642 144.500 52.358 C 135.863 52.143 129.440 52.503 125.364 53.431 M 159.500 61.608 C 182.985 67.579 202.244 86.862 208.972 111.141 C 211.761 121.207 211.587 143.747 208.697 146.636 C 208.435 146.899 206.179 145.675 203.685 143.917 C 198.454 140.230 191.350 139.069 185.610 140.964 C 183.617 141.621 179.564 144.374 176.603 147.080 C 169.626 153.456 167.321 153.509 160.833 147.440 C 150.036 137.341 139.964 137.341 129.167 147.440 C 122.809 153.388 120.411 153.400 114.123 147.518 C 108.511 142.269 103.645 140.000 98.000 140.000 C 92.347 140.000 88.316 141.931 82.529 147.410 C 78.233 151.478 77.403 151.904 76.415 150.552 C 71.924 144.411 71.933 118.320 76.430 106.183 C 85.634 81.344 106.430 64.024 131.870 60.010 C 138.975 58.888 151.701 59.624 159.500 61.608 M 105.877 153.482 C 111.461 158.705 116.353 161.000 121.903 161.000 C 127.601 161.000 130.575 159.589 136.722 153.971 C 143.830 147.475 146.373 147.398 152.877 153.482 C 158.493 158.735 163.356 161.000 169.018 161.000 C 174.120 161.000 178.185 158.958 184.207 153.368 C 190.510 147.520 193.177 147.555 199.877 153.579 C 204.941 158.132 204.961 158.175 203.459 161.079 C 202.628 162.686 201.682 164.000 201.356 164.000 C 201.031 164.000 199.226 162.650 197.347 161.000 C 195.468 159.350 193.086 158.000 192.055 158.000 C 191.024 158.000 187.970 159.747 185.269 161.882 C 178.077 167.566 174.744 169.003 168.800 168.978 C 162.791 168.953 157.705 166.797 151.172 161.506 C 148.792 159.577 146.068 158.000 145.120 158.000 C 144.171 158.000 140.353 160.336 136.635 163.191 C 130.614 167.814 129.238 168.427 124.044 168.803 C 116.470 169.351 112.144 167.837 105.795 162.417 C 102.948 159.988 99.895 158.000 99.009 158.000 C 98.124 158.000 94.875 160.250 91.789 163.000 C 88.704 165.750 85.760 168.000 85.247 168.000 C 84.217 168.000 80.316 161.273 81.044 160.753 C 81.295 160.573 83.336 159.197 85.581 157.694 C 87.826 156.192 90.947 153.621 92.518 151.981 C 96.695 147.621 100.010 147.994 105.877 153.482 M 158.649 173.750 C 158.319 175.263 157.746 177.564 157.378 178.863 C 156.777 180.981 156.914 181.116 158.699 180.161 C 160.217 179.349 161.230 179.473 162.956 180.682 C 164.965 182.089 165.149 182.821 164.577 187.134 C 164.066 190.984 164.229 192.000 165.359 192.000 C 167.136 192.000 168.000 189.848 168.000 185.418 C 168.000 182.287 168.252 182.000 171.000 182.000 C 173.837 182.000 174.000 182.219 174.000 186.032 C 174.000 192.419 171.770 196.591 167.625 197.959 C 164.798 198.892 163.480 198.861 161.278 197.811 C 158.871 196.662 158.433 195.769 158.000 191.126 C 157.525 186.037 157.416 185.860 155.843 187.633 C 154.932 188.660 153.677 191.413 153.054 193.750 C 152.046 197.539 151.601 198.000 148.961 198.000 C 147.333 198.000 146.000 197.614 146.000 197.143 C 146.000 195.668 152.175 174.591 153.147 172.750 C 153.663 171.772 155.212 171.000 156.660 171.000 C 158.964 171.000 159.184 171.303 158.649 173.750 M 130.000 172.642 C 130.000 172.995 127.975 175.655 125.500 178.552 C 123.025 181.449 121.000 184.205 121.000 184.678 C 121.000 185.150 123.212 188.219 125.916 191.499 C 128.620 194.779 130.619 197.808 130.357 198.231 C 130.096 198.654 128.579 199.000 126.986 199.000 C 124.641 199.000 123.132 197.815 119.045 192.764 C 116.270 189.335 114.002 185.847 114.005 185.014 C 114.008 184.182 116.110 180.913 118.677 177.750 C 122.665 172.837 123.829 172.000 126.672 172.000 C 128.502 172.000 130.000 172.289 130.000 172.642 "/></g>
<g fill="#FFFFFFFF" stroke="#FFFFFFFF">
<path d="M 131.870 60.010 C 106.430 64.024 85.634 81.344 76.430 106.183 C 71.933 118.320 71.924 144.411 76.415 150.552 C 77.403 151.904 78.233 151.478 82.529 147.410 C 88.316 141.931 92.347 140.000 98.000 140.000 C 103.645 140.000 108.511 142.269 114.123 147.518 C 120.411 153.400 122.809 153.388 129.167 147.440 C 139.964 137.341 150.036 137.341 160.833 147.440 C 167.321 153.509 169.626 153.456 176.603 147.080 C 179.564 144.374 183.617 141.621 185.610 140.964 C 191.350 139.069 198.454 140.230 203.685 143.917 C 206.179 145.675 208.435 146.899 208.697 146.636 C 211.587 143.747 211.761 121.207 208.972 111.141 C 202.244 86.862 182.985 67.579 159.500 61.608 C 151.701 59.624 138.975 58.888 131.870 60.010 M 189.000 93.000 C 189.000 94.733 189.667 95.000 194.000 95.000 C 198.868 95.000 199.000 95.078 199.000 97.945 C 199.000 100.749 198.772 100.905 194.250 101.195 L 189.500 101.500 189.217 112.189 C 188.938 122.727 188.891 122.914 185.890 125.439 C 183.316 127.605 181.857 128.000 176.423 128.000 L 170.000 128.000 170.000 125.000 C 170.000 122.044 170.078 122.000 175.300 122.000 C 180.442 122.000 183.000 120.820 183.000 118.447 C 183.000 117.671 181.418 117.446 178.161 117.759 C 173.777 118.180 173.112 117.958 171.104 115.405 C 169.539 113.415 169.070 111.839 169.509 110.043 C 170.461 106.152 172.529 104.646 177.738 104.047 C 185.716 103.130 183.167 101.521 173.250 101.212 C 164.165 100.930 164.000 100.881 164.000 98.462 C 164.000 96.335 164.457 96.000 167.353 96.000 C 169.198 96.000 173.473 95.711 176.853 95.358 C 181.946 94.825 183.000 94.396 183.000 92.858 C 183.000 91.460 183.743 91.000 186.000 91.000 C 188.333 91.000 189.000 91.444 189.000 93.000 M 138.418 103.788 L 137.812 107.577 142.141 108.538 C 148.006 109.841 149.150 112.283 148.786 122.723 C 148.457 132.190 146.916 134.653 140.690 135.663 C 137.130 136.241 137.000 136.157 137.000 133.291 C 137.000 131.079 137.650 130.025 139.548 129.160 C 141.936 128.072 142.077 127.608 141.798 121.750 C 141.533 116.186 141.259 115.466 139.305 115.188 C 137.468 114.926 136.931 115.577 136.008 119.188 C 132.065 134.607 131.657 135.480 128.226 135.813 C 126.452 135.986 125.000 135.883 125.000 135.584 C 125.000 135.286 126.073 131.770 127.384 127.771 C 131.596 114.921 131.595 115.000 127.456 115.000 C 124.016 115.000 123.886 114.870 124.187 111.750 C 124.473 108.783 124.826 108.473 128.250 108.190 C 131.435 107.926 132.000 107.524 132.000 105.521 C 132.000 101.429 133.066 100.000 136.119 100.000 C 138.921 100.000 139.002 100.134 138.418 103.788 M 106.639 92.250 C 107.531 95.376 107.784 95.511 113.283 95.800 C 118.578 96.078 119.000 96.278 119.000 98.515 C 119.000 100.651 118.435 101.006 114.120 101.578 L 109.241 102.226 110.608 107.363 C 111.361 110.188 111.982 112.640 111.988 112.810 C 111.995 112.981 110.334 112.981 108.298 112.810 C 104.728 112.511 104.559 112.322 103.544 107.500 L 102.491 102.500 94.246 102.210 L 86.000 101.919 86.000 98.960 L 86.000 96.000 93.111 96.000 L 100.223 96.000 99.566 92.500 C 98.920 89.057 98.965 89.000 102.310 89.000 C 105.290 89.000 105.826 89.402 106.639 92.250 M 94.289 113.884 C 93.784 117.648 93.885 117.807 97.561 119.020 C 100.063 119.846 104.187 120.072 109.677 119.685 L 118.000 119.097 118.000 121.932 C 118.000 125.457 116.389 125.968 105.218 125.986 C 96.053 126.001 91.162 124.497 88.631 120.883 C 85.338 116.182 87.218 110.000 91.940 110.000 C 94.696 110.000 94.789 110.153 94.289 113.884 M 158.109 109.750 C 158.691 111.263 159.420 115.763 159.728 119.750 L 160.289 127.000 156.747 127.000 L 153.205 127.000 152.774 118.750 C 152.536 114.213 151.992 109.713 151.564 108.750 C 150.915 107.290 151.305 107.000 153.918 107.000 C 156.411 107.000 157.266 107.561 158.109 109.750 M 157.000 101.500 C 157.000 103.056 156.433 104.000 155.500 104.000 C 154.567 104.000 154.000 103.056 154.000 101.500 C 154.000 99.944 154.567 99.000 155.500 99.000 C 156.433 99.000 157.000 99.944 157.000 101.500 M 151.000 101.500 C 151.000 103.056 150.433 104.000 149.500 104.000 C 148.567 104.000 148.000 103.056 148.000 101.500 C 148.000 99.944 148.567 99.000 149.500 99.000 C 150.433 99.000 151.000 99.944 151.000 101.500 "/></g>
<g fill="#FFFFFFFF" stroke="#FFFFFFFF">
<path d="M 92.518 151.981 C 90.947 153.621 87.826 156.192 85.581 157.694 C 83.336 159.197 81.295 160.573 81.044 160.753 C 80.316 161.273 84.217 168.000 85.247 168.000 C 85.760 168.000 88.704 165.750 91.789 163.000 C 94.875 160.250 98.124 158.000 99.009 158.000 C 99.895 158.000 102.948 159.988 105.795 162.417 C 112.144 167.837 116.470 169.351 124.044 168.803 C 129.238 168.427 130.614 167.814 136.635 163.191 C 140.353 160.336 144.171 158.000 145.120 158.000 C 146.068 158.000 148.792 159.577 151.172 161.506 C 157.705 166.797 162.791 168.953 168.800 168.978 C 174.744 169.003 178.077 167.566 185.269 161.882 C 187.970 159.747 191.024 158.000 192.055 158.000 C 193.086 158.000 195.468 159.350 197.347 161.000 C 199.226 162.650 201.031 164.000 201.356 164.000 C 201.682 164.000 202.628 162.686 203.459 161.079 C 204.961 158.175 204.941 158.132 199.877 153.579 C 193.177 147.555 190.510 147.520 184.207 153.368 C 178.185 158.958 174.120 161.000 169.018 161.000 C 163.356 161.000 158.493 158.735 152.877 153.482 C 146.373 147.398 143.830 147.475 136.722 153.971 C 130.575 159.589 127.601 161.000 121.903 161.000 C 116.353 161.000 111.461 158.705 105.877 153.482 C 100.010 147.994 96.695 147.621 92.518 151.981 "/></g>
<g fill="#008DC7FF" stroke="#008DC7FF">
<path d="M 183.000 92.858 C 183.000 94.396 181.946 94.825 176.853 95.358 C 173.473 95.711 169.198 96.000 167.353 96.000 C 164.457 96.000 164.000 96.335 164.000 98.462 C 164.000 100.881 164.165 100.930 173.250 101.212 C 183.167 101.521 185.716 103.130 177.738 104.047 C 172.529 104.646 170.461 106.152 169.509 110.043 C 169.070 111.839 169.539 113.415 171.104 115.405 C 173.112 117.958 173.777 118.180 178.161 117.759 C 181.418 117.446 183.000 117.671 183.000 118.447 C 183.000 120.820 180.442 122.000 175.300 122.000 C 170.078 122.000 170.000 122.044 170.000 125.000 L 170.000 128.000 176.423 128.000 C 181.857 128.000 183.316 127.605 185.890 125.439 C 188.891 122.914 188.938 122.727 189.217 112.189 L 189.500 101.500 194.250 101.195 C 198.772 100.905 199.000 100.749 199.000 97.945 C 199.000 95.078 198.868 95.000 194.000 95.000 C 189.667 95.000 189.000 94.733 189.000 93.000 C 189.000 91.444 188.333 91.000 186.000 91.000 C 183.743 91.000 183.000 91.460 183.000 92.858 M 180.418 108.607 C 181.288 108.941 182.000 110.066 182.000 111.107 C 182.000 112.544 181.277 113.000 179.000 113.000 C 176.710 113.000 176.000 112.546 176.000 111.083 C 176.000 110.029 176.563 108.940 177.250 108.662 C 177.938 108.385 178.576 108.122 178.668 108.079 C 178.761 108.036 179.548 108.273 180.418 108.607 "/></g>
<g fill="#008DC7FF" stroke="#008DC7FF">
<path d="M 132.607 101.582 C 132.273 102.452 132.000 104.225 132.000 105.521 C 132.000 107.524 131.435 107.926 128.250 108.190 C 124.826 108.473 124.473 108.783 124.187 111.750 C 123.886 114.870 124.016 115.000 127.456 115.000 C 131.595 115.000 131.596 114.921 127.384 127.771 C 126.073 131.770 125.000 135.286 125.000 135.584 C 125.000 135.883 126.452 135.986 128.226 135.813 C 131.657 135.480 132.065 134.607 136.008 119.188 C 136.931 115.577 137.468 114.926 139.305 115.188 C 141.259 115.466 141.533 116.186 141.798 121.750 C 142.077 127.608 141.936 128.072 139.548 129.160 C 137.650 130.025 137.000 131.079 137.000 133.291 C 137.000 136.157 137.130 136.241 140.690 135.663 C 146.916 134.653 148.457 132.190 148.786 122.723 C 149.150 112.283 148.006 109.841 142.141 108.538 L 137.812 107.577 138.418 103.788 C 139.002 100.134 138.921 100.000 136.119 100.000 C 134.392 100.000 132.968 100.642 132.607 101.582 "/></g>
<g fill="#FFFFFFFF" stroke="#FFFFFFFF">
<path d="M 153.147 172.750 C 152.175 174.591 146.000 195.668 146.000 197.143 C 146.000 197.614 147.333 198.000 148.961 198.000 C 151.601 198.000 152.046 197.539 153.054 193.750 C 153.677 191.413 154.932 188.660 155.843 187.633 C 157.416 185.860 157.525 186.037 158.000 191.126 C 158.433 195.769 158.871 196.662 161.278 197.811 C 163.480 198.861 164.798 198.892 167.625 197.959 C 171.770 196.591 174.000 192.419 174.000 186.032 C 174.000 182.219 173.837 182.000 171.000 182.000 C 168.252 182.000 168.000 182.287 168.000 185.418 C 168.000 189.848 167.136 192.000 165.359 192.000 C 164.229 192.000 164.066 190.984 164.577 187.134 C 165.149 182.821 164.965 182.089 162.956 180.682 C 161.230 179.473 160.217 179.349 158.699 180.161 C 156.914 181.116 156.777 180.981 157.378 178.863 C 159.447 171.569 159.395 171.000 156.660 171.000 C 155.212 171.000 153.663 171.772 153.147 172.750 "/></g>
<g fill="#FFFFFFFF" stroke="#FFFFFFFF">
<path d="M 20.000 126.500 L 20.000 146.000 24.250 146.000 L 28.500 146.001 28.500 129.750 C 28.500 120.813 28.826 112.038 29.225 110.250 L 29.950 107.000 24.975 107.000 L 20.000 107.000 20.000 126.500 "/></g>
<g fill="#008DC7FF" stroke="#008DC7FF">
<path d="M 99.566 92.500 L 100.223 96.000 93.111 96.000 L 86.000 96.000 86.000 98.960 L 86.000 101.919 94.246 102.210 L 102.491 102.500 103.544 107.500 C 104.559 112.322 104.728 112.511 108.298 112.810 C 110.334 112.981 111.995 112.981 111.988 112.810 C 111.982 112.640 111.361 110.188 110.608 107.363 L 109.241 102.226 114.120 101.578 C 118.435 101.006 119.000 100.651 119.000 98.515 C 119.000 96.278 118.578 96.078 113.283 95.800 C 107.784 95.511 107.531 95.376 106.639 92.250 C 105.826 89.402 105.290 89.000 102.310 89.000 C 98.965 89.000 98.920 89.057 99.566 92.500 "/></g>
<g fill="#008DC7FF" stroke="#008DC7FF">
<path d="M 88.035 111.934 C 85.480 116.708 87.903 122.226 93.599 124.606 C 96.982 126.019 111.463 126.519 115.750 125.370 C 117.412 124.924 118.000 124.026 118.000 121.932 L 118.000 119.097 109.677 119.685 C 104.187 120.072 100.063 119.846 97.561 119.020 C 93.885 117.807 93.784 117.648 94.289 113.884 C 94.789 110.153 94.696 110.000 91.940 110.000 C 90.126 110.000 88.689 110.712 88.035 111.934 "/></g>
<g fill="#FFFFFFFF" stroke="#FFFFFFFF">
<path d="M 118.677 177.750 C 116.110 180.913 114.008 184.182 114.005 185.014 C 114.002 185.847 116.270 189.335 119.045 192.764 C 123.132 197.815 124.641 199.000 126.986 199.000 C 128.579 199.000 130.096 198.654 130.357 198.231 C 130.619 197.808 128.620 194.779 125.916 191.499 C 123.212 188.219 121.000 185.150 121.000 184.678 C 121.000 184.205 123.025 181.449 125.500 178.552 C 127.975 175.655 130.000 172.995 130.000 172.642 C 130.000 172.289 128.502 172.000 126.672 172.000 C 123.829 172.000 122.665 172.837 118.677 177.750 "/></g>
<g fill="#FFFFFFFF" stroke="#FFFFFFFF">
<path d="M 11.359 152.550 C 8.400 155.509 8.713 159.339 12.153 162.250 C 15.005 164.663 17.650 164.441 20.545 161.545 C 23.626 158.465 23.678 154.986 20.686 152.174 C 17.626 149.300 14.482 149.427 11.359 152.550 "/></g>
<g fill="#FFFFFFFF" stroke="#FFFFFFFF">
<path d="M 12.866 89.520 C 7.115 92.625 9.120 101.142 15.757 101.807 C 21.557 102.388 25.066 95.611 21.250 91.198 C 18.838 88.408 15.983 87.837 12.866 89.520 "/></g>
<g fill="#008DC7FF" stroke="#008DC7FF">
<path d="M 151.564 108.750 C 151.992 109.713 152.536 114.213 152.774 118.750 L 153.205 127.000 156.747 127.000 L 160.289 127.000 159.728 119.750 C 158.933 109.466 157.810 107.000 153.918 107.000 C 151.305 107.000 150.915 107.290 151.564 108.750 "/></g>
<g fill="#008DC7FF" stroke="#008DC7FF">
<path d="M 72.655 57.829 C 70.469 60.244 70.552 64.284 72.829 66.345 C 76.765 69.907 82.333 67.361 82.333 62.000 C 82.333 56.556 76.199 53.912 72.655 57.829 "/></g>
<g fill="#008DC7FF" stroke="#008DC7FF">
<path d="M 140.000 33.000 C 137.597 35.403 137.462 37.786 139.557 40.777 C 142.658 45.206 150.000 42.394 150.000 36.777 C 150.000 34.391 146.479 31.000 144.000 31.000 C 142.900 31.000 141.100 31.900 140.000 33.000 "/></g>
<g fill="#008DC7FF" stroke="#008DC7FF">
<path d="M 73.000 191.000 C 71.900 192.100 71.000 193.900 71.000 195.000 C 71.000 197.479 74.391 201.000 76.777 201.000 C 79.719 201.000 83.000 198.070 83.000 195.443 C 83.000 192.489 79.751 189.000 77.000 189.000 C 75.900 189.000 74.100 189.900 73.000 191.000 "/></g>
<g fill="#008DC7FF" stroke="#008DC7FF">
<path d="M 231.055 126.657 C 227.840 130.744 230.361 136.000 235.536 136.000 C 240.587 136.000 242.926 128.462 238.777 125.557 C 235.586 123.321 233.439 123.627 231.055 126.657 "/></g>
<g fill="#008DC7FF" stroke="#008DC7FF">
<path d="M 48.000 123.694 C 45.783 124.486 44.000 127.090 44.000 129.536 C 44.000 134.587 51.538 136.926 54.443 132.777 C 56.675 129.591 56.374 127.439 53.365 125.073 C 50.592 122.892 50.390 122.840 48.000 123.694 "/></g>
<g fill="#008DC7FF" stroke="#008DC7FF">
<path d="M 202.557 191.223 C 200.551 194.086 200.596 195.279 202.810 198.014 C 206.358 202.395 213.000 200.026 213.000 194.380 C 213.000 189.194 205.554 186.943 202.557 191.223 "/></g>
<g fill="#008DC7FF" stroke="#008DC7FF">
<path d="M 207.223 60.557 C 204.300 62.604 204.120 68.459 206.934 69.965 C 211.587 72.455 216.000 70.031 216.000 64.985 C 216.000 62.228 213.033 59.000 210.500 59.000 C 209.920 59.000 208.445 59.701 207.223 60.557 "/></g>
<g fill="#008DC7FF" stroke="#008DC7FF">
<path d="M 137.655 217.829 C 135.484 220.228 135.555 223.287 137.829 225.345 C 141.592 228.751 148.000 226.219 148.000 221.326 C 148.000 216.648 140.897 214.247 137.655 217.829 "/></g>
<g fill="#FFFFFFFF" stroke="#FFFFFFFF">
<path d="M 177.250 108.662 C 176.563 108.940 176.000 110.029 176.000 111.083 C 176.000 112.546 176.710 113.000 179.000 113.000 C 181.277 113.000 182.000 112.544 182.000 111.107 C 182.000 109.647 179.728 107.582 178.668 108.079 C 178.576 108.122 177.938 108.385 177.250 108.662 "/></g>
<g fill="#008DC7FF" stroke="#008DC7FF">
<path d="M 154.000 101.500 C 154.000 103.056 154.567 104.000 155.500 104.000 C 156.433 104.000 157.000 103.056 157.000 101.500 C 157.000 99.944 156.433 99.000 155.500 99.000 C 154.567 99.000 154.000 99.944 154.000 101.500 "/></g>
<g fill="#008DC7FF" stroke="#008DC7FF">
<path d="M 148.000 101.500 C 148.000 103.056 148.567 104.000 149.500 104.000 C 150.433 104.000 151.000 103.056 151.000 101.500 C 151.000 99.944 150.433 99.000 149.500 99.000 C 148.567 99.000 148.000 99.944 148.000 101.500 "/></g>
</svg>
