<?xml version="1.0" standalone="no"?>
<!DOCTYPE svg PUBLIC "-//W3C//DTD SVG 20010904//EN"
 "http://www.w3.org/TR/2001/REC-SVG-20010904/DTD/svg10.dtd">
<svg version="1.0" xmlns="http://www.w3.org/2000/svg"
 width="256.000000pt" height="256.000000pt" viewBox="0 0 256.000000 256.000000"
 preserveAspectRatio="xMidYMid meet">

<g transform="translate(0.000000,256.000000) scale(0.100000,-0.100000)"
fill="#000000" stroke="none">
<path d="M1230 2406 c-127 -23 -195 -43 -293 -89 -232 -109 -413 -278 -534
-502 l-48 -90 -142 -3 c-136 -2 -142 -3 -167 -28 -58 -58 -42 -138 36 -186 26
-16 50 -39 53 -51 3 -12 4 -92 3 -177 l-3 -155 -48 -22 c-82 -39 -101 -132
-40 -189 24 -23 33 -24 147 -24 79 -1 126 -5 137 -13 8 -7 34 -51 57 -98 132
-274 409 -509 692 -589 96 -26 252 -50 332 -50 73 0 227 22 312 45 278 73 543
287 689 555 199 364 180 822 -48 1165 -158 238 -404 413 -675 480 -130 32
-343 42 -460 21z m305 -67 c288 -35 550 -186 726 -418 64 -85 141 -241 176
-356 25 -84 27 -102 27 -280 0 -163 -3 -201 -21 -267 -107 -384 -391 -665
-776 -770 -70 -19 -108 -22 -257 -23 -159 0 -184 3 -270 27 -306 85 -552 286
-685 561 -230 475 -89 1027 342 1339 159 116 389 192 598 197 28 0 91 -4 140
-10z m-1341 -670 c50 -39 22 -119 -43 -119 -33 0 -71 39 -71 72 0 24 44 68 68
68 11 0 31 -9 46 -21z m88 -201 c-4 -18 -7 -106 -7 -196 l0 -162 -42 0 -43 0
0 195 0 195 50 0 50 0 -8 -32z m-85 -420 c31 -29 30 -71 -3 -97 -35 -27 -59
-26 -89 4 -30 30 -31 54 -4 89 25 32 64 34 96 4z"/>
<path d="M1403 2248 c-62 -30 -24 -120 43 -104 50 13 56 83 9 104 -14 7 -27
12 -28 11 -1 0 -12 -5 -24 -11z"/>
<path d="M1246 2033 c-138 -29 -278 -105 -379 -206 -263 -264 -300 -681 -88
-984 270 -385 814 -441 1157 -120 247 230 312 605 160 905 -158 311 -510 479
-850 405z m339 -78 c329 -84 552 -410 514 -751 -13 -120 -13 -120 -59 -84 -92
73 -189 66 -283 -20 -72 -65 -92 -65 -164 0 -103 94 -202 94 -304 0 -71 -65
-95 -66 -161 -4 -107 100 -202 99 -309 -1 -27 -25 -52 -45 -57 -45 -28 0 -56
202 -43 309 39 308 262 548 566 607 82 16 213 11 300 -11z m-540 -916 c100
-103 208 -105 316 -4 65 60 93 60 158 0 107 -100 205 -100 312 0 65 61 93 60
159 -1 49 -46 49 -46 34 -75 -8 -16 -17 -29 -20 -29 -4 0 -22 14 -41 30 -18
17 -42 30 -52 30 -10 0 -43 -20 -73 -44 -66 -55 -94 -66 -163 -66 -69 0 -97
11 -163 66 -30 24 -62 44 -72 44 -10 0 -42 -20 -71 -45 -65 -55 -103 -68 -184
-63 -58 3 -68 8 -130 56 -37 29 -72 52 -78 52 -6 0 -36 -22 -68 -50 -32 -27
-62 -50 -67 -50 -5 0 -17 16 -28 36 -19 36 -19 37 0 48 11 6 43 32 73 59 71
62 103 64 158 6z m532 -206 c-3 -16 -9 -36 -13 -46 -5 -15 -3 -17 18 -12 38
10 58 -17 58 -76 0 -27 4 -49 9 -49 11 0 21 35 21 73 0 23 4 27 30 27 29 0 30
-1 30 -47 0 -66 -28 -110 -75 -119 -55 -10 -85 15 -85 71 0 70 -22 59 -50 -25
-12 -37 -20 -46 -42 -48 -36 -4 -36 7 3 139 39 130 44 139 76 139 23 0 25 -3
20 -27z m-287 11 c0 -4 -20 -32 -45 -62 -25 -30 -45 -57 -45 -61 0 -3 23 -33
50 -66 28 -33 50 -63 50 -67 0 -5 -16 -8 -35 -8 -30 0 -41 8 -85 61 -27 33
-50 68 -50 78 0 10 21 44 46 75 40 48 51 56 80 56 19 0 34 -3 34 -6z"/>
<path d="M987 1643 l6 -33 -72 0 -71 0 0 -30 0 -29 82 -3 82 -3 11 -45 c10
-42 13 -45 47 -48 l36 -3 -14 47 c-7 25 -11 50 -8 55 3 5 25 9 50 9 40 0 44 2
44 25 0 22 -4 24 -57 27 -52 3 -57 5 -67 33 -9 25 -17 30 -42 30 -30 0 -32 -2
-27 -32z"/>
<path d="M1818 1638 c-3 -22 -8 -23 -95 -26 -91 -3 -93 -3 -93 -27 0 -25 1
-25 95 -25 78 0 95 -3 95 -15 0 -11 -11 -15 -41 -15 -51 0 -74 -13 -87 -47
-20 -58 21 -99 89 -90 27 3 39 1 39 -7 0 -24 -25 -36 -77 -36 -52 0 -53 0 -53
-30 l0 -30 66 0 c59 0 68 3 95 29 28 29 29 32 29 135 l0 106 50 0 c49 0 50 1
50 30 0 29 -1 30 -50 30 -43 0 -50 3 -50 20 0 31 -57 28 -62 -2z m-18 -158
c27 -15 14 -40 -20 -40 -36 0 -49 19 -25 37 22 16 21 16 45 3z"/>
<path d="M1470 1555 c0 -16 6 -25 15 -25 9 0 15 9 15 25 0 16 -6 25 -15 25 -9
0 -15 -9 -15 -25z"/>
<path d="M1530 1555 c0 -16 6 -25 15 -25 9 0 15 9 15 25 0 16 -6 25 -15 25 -9
0 -15 -9 -15 -25z"/>
<path d="M1314 1528 c-8 -39 -12 -43 -41 -46 -29 -3 -33 -7 -33 -33 0 -26 4
-29 30 -29 28 0 29 -2 23 -32 -3 -18 -17 -64 -30 -102 -12 -38 -23 -71 -23
-73 0 -7 59 -2 64 6 3 4 16 50 30 102 22 85 26 94 48 94 21 0 23 -4 26 -62 3
-59 1 -64 -23 -75 -18 -8 -25 -19 -25 -41 0 -28 1 -29 38 -22 63 11 77 33 80
128 4 104 -8 130 -63 137 -40 5 -40 5 -39 48 1 39 -1 42 -26 42 -24 0 -28 -5
-36 -42z"/>
<path d="M1505 1483 c16 -40 26 -100 23 -140 -3 -43 -3 -43 31 -43 l34 0 -6
74 c-9 104 -19 126 -58 126 -26 0 -30 -3 -24 -17z"/>
<path d="M870 1444 c-6 -14 -10 -33 -10 -43 0 -30 38 -70 78 -81 41 -11 137
-13 195 -3 34 5 38 9 35 32 l-3 26 -90 -3 c-50 -2 -103 1 -119 7 -26 11 -28
15 -23 51 5 39 4 40 -24 40 -22 0 -32 -6 -39 -26z"/>
<path d="M722 1994 c-43 -30 -16 -104 39 -104 43 0 65 73 31 103 -23 21 -41
21 -70 1z"/>
<path d="M2069 1966 c-30 -14 -38 -66 -14 -90 36 -35 95 -7 95 46 0 41 -42 64
-81 44z"/>
<path d="M464 1327 c-39 -21 -46 -63 -16 -90 28 -26 69 -21 89 9 15 23 15 29
2 52 -17 31 -49 43 -75 29z"/>
<path d="M2312 1314 c-43 -30 -20 -104 32 -104 52 0 76 75 34 104 -12 9 -27
16 -33 16 -6 0 -21 -7 -33 -16z"/>
<path d="M725 666 c-40 -29 -14 -106 37 -106 24 0 58 35 58 60 0 25 -34 60
-58 60 -10 0 -27 -6 -37 -14z"/>
<path d="M2020 665 c-7 -8 -12 -26 -12 -40 0 -34 19 -55 53 -55 53 0 79 59 41
93 -23 21 -66 22 -82 2z"/>
<path d="M1367 392 c-21 -23 -21 -41 -1 -70 30 -43 104 -16 104 39 0 43 -73
65 -103 31z"/>
</g>
</svg>
